<svg width="15" height="16" viewBox="0 0 15 16" fill="none" xmlns="http://www.w3.org/2000/svg">
<g clip-path="url(#clip0_1099_10605)">
<path d="M12.5 2.375H11.875V1.75C11.875 1.40625 11.5938 1.125 11.25 1.125C10.9062 1.125 10.625 1.40625 10.625 1.75V2.375H4.375V1.75C4.375 1.40625 4.09375 1.125 3.75 1.125C3.40625 1.125 3.125 1.40625 3.125 1.75V2.375H2.5C1.8125 2.375 1.25 2.9375 1.25 3.625V13.625C1.25 14.3125 1.8125 14.875 2.5 14.875H12.5C13.1875 14.875 13.75 14.3125 13.75 13.625V3.625C13.75 2.9375 13.1875 2.375 12.5 2.375ZM11.875 13.625H3.125C2.78125 13.625 2.5 13.3438 2.5 13V5.5H12.5V13C12.5 13.3438 12.2188 13.625 11.875 13.625Z" fill="#4A4646"/>
</g>
<defs>
<clipPath id="clip0_1099_10605">
<rect width="15" height="15" fill="white" transform="translate(0 0.5)"/>
</clipPath>
</defs>
</svg>
