<svg width="18" height="18" viewBox="0 0 18 18" fill="none" xmlns="http://www.w3.org/2000/svg">
<path d="M12.6165 0.666C15.4415 0.666 17.3332 2.64933 17.3332 5.59933V12.4085C17.3332 15.3502 15.4415 17.3327 12.6165 17.3327H5.3915C2.5665 17.3327 0.666504 15.3502 0.666504 12.4085V5.59933C0.666504 2.64933 2.5665 0.666 5.3915 0.666H12.6165ZM11.5082 6.47517C11.2248 6.191 10.7665 6.191 10.4748 6.47517L8.99984 7.95767L7.5165 6.47517C7.22484 6.191 6.7665 6.191 6.48317 6.47517C6.19984 6.7585 6.19984 7.22517 6.48317 7.50767L7.9665 8.99183L6.48317 10.4668C6.19984 10.7585 6.19984 11.2168 6.48317 11.4993C6.62484 11.641 6.8165 11.7168 6.99984 11.7168C7.1915 11.7168 7.37484 11.641 7.5165 11.4993L8.99984 10.0252L10.4832 11.4993C10.6248 11.6502 10.8082 11.7168 10.9915 11.7168C11.1832 11.7168 11.3665 11.641 11.5082 11.4993C11.7915 11.2168 11.7915 10.7585 11.5082 10.4752L10.0248 8.99183L11.5082 7.50767C11.7915 7.22517 11.7915 6.7585 11.5082 6.47517Z" fill="#09242E"/>
</svg>
