<svg width="18" height="15" viewBox="0 0 18 15" fill="none" xmlns="http://www.w3.org/2000/svg">
<path d="M13.1159 0C14.2334 0 15.3084 0.441667 16.0992 1.23417C16.8909 2.025 17.3334 3.09167 17.3334 4.20833V10.7917C17.3334 13.1167 15.4417 15 13.1159 15H4.88335C2.55752 15 0.666687 13.1167 0.666687 10.7917V4.20833C0.666687 1.88333 2.54919 0 4.88335 0H13.1159ZM14.0584 4.33333C13.8834 4.32417 13.7167 4.38333 13.5909 4.5L9.83335 7.5C9.35002 7.90083 8.65752 7.90083 8.16669 7.5L4.41669 4.5C4.15752 4.30833 3.79919 4.33333 3.58335 4.55833C3.35835 4.78333 3.33335 5.14167 3.52419 5.39167L3.63335 5.5L7.42502 8.45833C7.89169 8.825 8.45752 9.025 9.05002 9.025C9.64085 9.025 10.2167 8.825 10.6825 8.45833L14.4417 5.45L14.5084 5.38333C14.7075 5.14167 14.7075 4.79167 14.4992 4.55C14.3834 4.42583 14.2242 4.35 14.0584 4.33333Z" fill="white"/>
</svg>
