<svg width="16" height="17" viewBox="0 0 16 17" fill="none" xmlns="http://www.w3.org/2000/svg">
<path d="M7.98732 0C10.5446 0 12.6023 2.01232 12.6023 4.49667V5.77445C14.0376 6.22247 15.0834 7.52178 15.0834 9.07367V13.1878C15.0834 15.109 13.4906 16.6667 11.5269 16.6667H4.47402C2.50948 16.6667 0.916687 15.109 0.916687 13.1878V9.07367C0.916687 7.52178 1.96331 6.22247 3.39776 5.77445V4.49667C3.40623 2.01232 5.46391 0 7.98732 0ZM7.99579 9.4869C7.58933 9.4869 7.25909 9.80986 7.25909 10.2074V12.0458C7.25909 12.4516 7.58933 12.7745 7.99579 12.7745C8.41071 12.7745 8.74096 12.4516 8.74096 12.0458V10.2074C8.74096 9.80986 8.41071 9.4869 7.99579 9.4869ZM8.00425 1.4492C6.28529 1.4492 4.8881 2.80731 4.87963 4.48011V5.59475H11.1204V4.49667C11.1204 2.8156 9.72322 1.4492 8.00425 1.4492Z" fill="white"/>
</svg>
