<svg width="25" height="24" viewBox="0 0 25 24" fill="none" xmlns="http://www.w3.org/2000/svg">
<mask id="mask0_1099_10618" style="mask-type:alpha" maskUnits="userSpaceOnUse" x="0" y="0" width="25" height="24">
<rect x="0.5" width="24" height="24" fill="#D9D9D9"/>
</mask>
<g mask="url(#mask0_1099_10618)">
<path d="M2.5 21V9L10.5 3L15.875 7.05C15.4583 7.1 15.0667 7.19583 14.7 7.3375C14.3333 7.47917 13.9833 7.66667 13.65 7.9L10.5 5.5L4.5 10V19H8.5V21H2.5ZM10.5 21V19.1C10.5 18.75 10.5875 18.4208 10.7625 18.1125C10.9375 17.8042 11.175 17.5583 11.475 17.375C12.2417 16.925 13.0458 16.5833 13.8875 16.35C14.7292 16.1167 15.6 16 16.5 16C17.4 16 18.2708 16.1167 19.1125 16.35C19.9542 16.5833 20.7583 16.925 21.525 17.375C21.825 17.5583 22.0625 17.8042 22.2375 18.1125C22.4125 18.4208 22.5 18.75 22.5 19.1V21H10.5ZM12.65 19H20.35C19.7667 18.6667 19.15 18.4167 18.5 18.25C17.85 18.0833 17.1833 18 16.5 18C15.8167 18 15.15 18.0833 14.5 18.25C13.85 18.4167 13.2333 18.6667 12.65 19ZM16.5 15C15.6667 15 14.9583 14.7083 14.375 14.125C13.7917 13.5417 13.5 12.8333 13.5 12C13.5 11.1667 13.7917 10.4583 14.375 9.875C14.9583 9.29167 15.6667 9 16.5 9C17.3333 9 18.0417 9.29167 18.625 9.875C19.2083 10.4583 19.5 11.1667 19.5 12C19.5 12.8333 19.2083 13.5417 18.625 14.125C18.0417 14.7083 17.3333 15 16.5 15ZM16.5 13C16.7833 13 17.0208 12.9042 17.2125 12.7125C17.4042 12.5208 17.5 12.2833 17.5 12C17.5 11.7167 17.4042 11.4792 17.2125 11.2875C17.0208 11.0958 16.7833 11 16.5 11C16.2167 11 15.9792 11.0958 15.7875 11.2875C15.5958 11.4792 15.5 11.7167 15.5 12C15.5 12.2833 15.5958 12.5208 15.7875 12.7125C15.9792 12.9042 16.2167 13 16.5 13Z" fill="#09242E"/>
</g>
</svg>
