<svg width="20" height="20" viewBox="0 0 20 20" fill="none" xmlns="http://www.w3.org/2000/svg">
<g clip-path="url(#clip0_1099_10740)">
<path fill-rule="evenodd" clip-rule="evenodd" d="M13.8916 10.9417C15.0333 11.7167 15.8333 12.7667 15.8333 14.1667V16.6667H18.3333C18.7916 16.6667 19.1666 16.2917 19.1666 15.8333V14.1667C19.1666 12.35 16.1916 11.275 13.8916 10.9417Z" fill="#09242E"/>
<path d="M7.50033 10C9.34127 10 10.8337 8.50761 10.8337 6.66666C10.8337 4.82571 9.34127 3.33333 7.50033 3.33333C5.65938 3.33333 4.16699 4.82571 4.16699 6.66666C4.16699 8.50761 5.65938 10 7.50033 10Z" fill="#09242E"/>
<path fill-rule="evenodd" clip-rule="evenodd" d="M12.4999 10C14.3416 10 15.8333 8.50833 15.8333 6.66666C15.8333 4.82499 14.3416 3.33333 12.4999 3.33333C12.1083 3.33333 11.7416 3.41666 11.3916 3.53333C12.0833 4.39166 12.4999 5.48333 12.4999 6.66666C12.4999 7.85 12.0833 8.94166 11.3916 9.8C11.7416 9.91666 12.1083 10 12.4999 10Z" fill="#09242E"/>
<path fill-rule="evenodd" clip-rule="evenodd" d="M7.50016 10.8333C5.27516 10.8333 0.833496 11.95 0.833496 14.1667V15.8333C0.833496 16.2917 1.2085 16.6667 1.66683 16.6667H13.3335C13.7918 16.6667 14.1668 16.2917 14.1668 15.8333V14.1667C14.1668 11.95 9.72516 10.8333 7.50016 10.8333Z" fill="#09242E"/>
</g>
<defs>
<clipPath id="clip0_1099_10740">
<rect width="20" height="20" fill="white"/>
</clipPath>
</defs>
</svg>
