<svg width="25" height="24" viewBox="0 0 25 24" fill="none" xmlns="http://www.w3.org/2000/svg">
<g clip-path="url(#clip0_1102_2994)">
<path d="M14.5 6L13.78 4.55C13.61 4.21 13.26 4 12.88 4H6.5C5.95 4 5.5 4.45 5.5 5V20C5.5 20.55 5.95 21 6.5 21C7.05 21 7.5 20.55 7.5 20V14H12.5L13.22 15.45C13.39 15.79 13.74 16 14.11 16H19.5C20.05 16 20.5 15.55 20.5 15V7C20.5 6.45 20.05 6 19.5 6H14.5ZM18.5 14H14.5L13.5 12H7.5V6H12.5L13.5 8H18.5V14Z" fill="#09242E"/>
</g>
<defs>
<clipPath id="clip0_1102_2994">
<rect width="24" height="24" fill="white" transform="translate(0.5)"/>
</clipPath>
</defs>
</svg>
