<svg width="25" height="24" viewBox="0 0 25 24" fill="none" xmlns="http://www.w3.org/2000/svg">
<g clip-path="url(#clip0_1574_11332)">
<path d="M12.5001 22C13.6001 22 14.5001 21.1 14.5001 20H10.5001C10.5001 21.1 11.3901 22 12.5001 22ZM18.5001 16V11C18.5001 7.93 16.8601 5.36 14.0001 4.68V4C14.0001 3.17 13.3301 2.5 12.5001 2.5C11.6701 2.5 11.0001 3.17 11.0001 4V4.68C8.13005 5.36 6.50005 7.92 6.50005 11V16L5.21005 17.29C4.58005 17.92 5.02005 19 5.91005 19H19.0801C19.9701 19 20.4201 17.92 19.7901 17.29L18.5001 16Z" fill="#478FB4"/>
</g>
<defs>
<clipPath id="clip0_1574_11332">
<rect width="24" height="24" fill="white" transform="translate(0.5)"/>
</clipPath>
</defs>
</svg>
