<svg width="25" height="24" viewBox="0 0 25 24" fill="none" xmlns="http://www.w3.org/2000/svg">
<mask id="mask0_1099_10623" style="mask-type:alpha" maskUnits="userSpaceOnUse" x="0" y="0" width="25" height="24">
<rect x="0.5" width="24" height="24" fill="#D9D9D9"/>
</mask>
<g mask="url(#mask0_1099_10623)">
<path d="M21.5 12L17.15 18.15C16.9667 18.4167 16.7292 18.625 16.4375 18.775C16.1458 18.925 15.8333 19 15.5 19H5.5C4.95 19 4.47917 18.8042 4.0875 18.4125C3.69583 18.0208 3.5 17.55 3.5 17V7C3.5 6.45 3.69583 5.97917 4.0875 5.5875C4.47917 5.19583 4.95 5 5.5 5H15.5C15.8333 5 16.1458 5.075 16.4375 5.225C16.7292 5.375 16.9667 5.58333 17.15 5.85L21.5 12ZM19.05 12L15.5 7H5.5V17H15.5L19.05 12ZM11.025 16L12.275 13.25L15.025 12L12.275 10.75L11.025 8L9.775 10.75L7.025 12L9.775 13.25L11.025 16Z" fill="#09242E"/>
</g>
</svg>
